<?xml version="1.0" ?><svg height="512" id="Layer_1" version="1.1" viewBox="0 0 512 512" width="512" xml:space="preserve" xmlns="http://www.w3.org/2000/svg" xmlns:cc="http://creativecommons.org/ns#" xmlns:dc="http://purl.org/dc/elements/1.1/" xmlns:inkscape="http://www.inkscape.org/namespaces/inkscape" xmlns:rdf="http://www.w3.org/1999/02/22-rdf-syntax-ns#" xmlns:sodipodi="http://sodipodi.sourceforge.net/DTD/sodipodi-0.dtd" xmlns:svg="http://www.w3.org/2000/svg"><defs id="defs12"/><g id="g5758"><rect height="512" id="rect2987" style="fill:#3b5998;fill-opacity:1;fill-rule:nonzero;stroke:none" width="512" x="0" y="0"/><path d="M 366.4272,76.00001 H 145.5754 c -38.3663,0 -69.5753,31.2032 -69.5753,69.57555 v 73.48163 147.3776 c 0,38.3633 31.209,69.5652 69.5753,69.5652 H 366.435 c 38.3611,0 69.5649,-31.2019 69.5649,-69.5652 V 219.04421 145.55217 c -0.013,-38.36066 -31.209,-69.55216 -69.5727,-69.55216 z m 19.9573,41.48604 7.9549,-0.0298 v 7.91868 53.10168 l -60.8151,0.19486 -0.2078,-61.01518 53.068,-0.17017 z M 204.6148,219.04421 c 11.5387,-15.95299 30.24,-26.40861 51.3858,-26.40861 21.146,0 39.8537,10.45562 51.3691,26.40861 7.5041,10.41275 11.9998,23.1637 11.9998,36.94995 0,34.93781 -28.4527,63.36633 -63.3767,63.36633 -34.937,0 -63.3596,-28.42852 -63.3596,-63.36633 0.013,-13.78625 4.4878,-26.5372 11.9816,-36.94995 z m 196.3,147.37508 c 0,19.0355 -15.4708,34.4922 -34.4889,34.4922 H 145.5754 c -19.026,0 -34.4993,-15.4554 -34.4993,-34.4922 V 219.04421 h 53.7409 c -4.6438,11.41428 -7.2509,23.88205 -7.2509,36.94995 0,54.25908 44.152,98.43403 98.4358,98.43403 54.2864,0 98.4332,-44.17624 98.4332,-98.43403 0,-13.06921 -2.6251,-25.53567 -7.2612,-36.94995 h 53.7422 v 147.37508 z" id="path9-6" style="fill:#ffffff"/></g></svg>