<?xml version="1.0" ?><svg height="512" id="Layer_1" version="1.1" viewBox="0 0 512 512" width="512" xml:space="preserve" xmlns="http://www.w3.org/2000/svg" xmlns:cc="http://creativecommons.org/ns#" xmlns:dc="http://purl.org/dc/elements/1.1/" xmlns:inkscape="http://www.inkscape.org/namespaces/inkscape" xmlns:rdf="http://www.w3.org/1999/02/22-rdf-syntax-ns#" xmlns:sodipodi="http://sodipodi.sourceforge.net/DTD/sodipodi-0.dtd" xmlns:svg="http://www.w3.org/2000/svg"><defs id="defs12"/><g id="g5830"><rect height="512" id="rect2987" style="fill:#ca2127;fill-opacity:1;fill-rule:nonzero;stroke:none" width="512" x="0" y="0"/><path d="m 265.38115,56 c -109.161,0 -164.2023,78.2611 -164.2023,143.53806 0,39.51227 14.9518,74.66615 47.0384,87.75208 5.2638,2.17384 9.9811,0.0803 11.5108,-5.74201 1.0595,-4.01953 3.5694,-14.18825 4.6932,-18.44084 1.5297,-5.75942 0.9309,-7.76718 -3.3123,-12.80333 -9.2513,-10.90672 -15.1767,-25.03069 -15.1767,-45.0547 0,-58.05493 43.4474,-110.03969 113.1229,-110.03969 61.7036,0 95.6024,37.70275 95.6024,88.03604 0,66.25605 -29.3236,122.17062 -72.838,122.17062 -24.0381,0 -42.0182,-19.86865 -36.2668,-44.25509 6.9046,-29.10782 20.2838,-60.51273 20.2838,-81.53995 0,-18.7998 -10.1084,-34.48417 -30.9856,-34.48417 -24.57,0 -44.31,25.42046 -44.31,59.46664 0,21.68488 7.3292,36.36068 7.3292,36.36068 0,0 -25.1485,106.53849 -29.5551,125.19767 -8.7746,37.16163 -1.3234,82.70253 -0.6846,87.28998 0.3698,2.74041 3.879,3.40208 5.4675,1.33806 2.2529,-2.95739 31.5374,-39.085 41.4678,-75.19521 2.8234,-10.2156 16.1625,-63.14866 16.1625,-63.14866 7.9909,15.23969 31.3178,28.62699 56.1275,28.62699 73.8518,0 123.9654,-67.32625 123.9654,-157.44773 C 410.83415,119.47011 353.10245,56 265.38115,56 z" id="path15" style="fill:#ffffff"/></g></svg>